<svg id="Layer_1" data-name="Layer 1" xmlns="http://www.w3.org/2000/svg" viewBox="0 0 198 59.16322">
  <g>
    <path d="M63.37005,13.41015c-4.83614,0-8.3978,1.8391-10.37,5.22306V14.57373H46v32h7V29.31378c0-5.85293,2.0396-10.07366,7.712-10.07366S67,23.5252,67,27.92985V46.57373h8V26.20109C75,18.46767,71.637,13.41015,63.37005,13.41015Z"/>
    <polygon points="107.113 13.574 98.701 13.574 87 26.282 87 2.574 80 2.574 80 46.574 87 46.574 87 36.025 90.348 32.282 100.292 46.574 108.466 46.574 94.995 27.132 107.113 13.574"/>
    <path d="M125.76794,26.90091l-4.713-.93866c-2.90793-.5538-4.45378-1.71775-4.45378-3.94235s2.96918-3.63259,6.18816-3.63259c3.70911,0,6.49447,1.16862,7.29569,4.18642l6.92809.02346c-1.362-6.65039-7.30041-9.79018-13.79489-9.79018-7.17317,0-13.54514,3.75461-13.54514,9.57428,0,6.09655,4.39251,8.4995,10.01981,9.66812l5.00994.9856c3.28021.68053,5.75453,1.85385,5.75453,4.56185s-2.78536,4.30841-6.67829,4.30841c-4.39251,0-6.80558-1.8773-7.47482-5.33154h-7.17789c.80593,6.20918,6.24942,10.90245,14.41231,10.90245,7.5455,0,14.10128-3.8203,14.10128-10.71941C137.64,30.28943,132.5075,28.19625,125.76794,26.90091Z"/>
    <path d="M153.74835,37.39336l-7.55458-23.81963h-8.04065l11.98593,32.68848-.3693.79135c-1.47254,4.27809-2.81886,4.52017-6.01166,4.52017H141v6h3.31931c7.49792,0,9.66985-2.2851,12.8286-10.86131L168.8575,13.57373h-7.55457Z"/>
    <path d="M184.65394,26.90091l-4.713-.93866c-2.90318-.5538-4.45377-1.71775-4.45377-3.94235s2.9692-3.63259,6.18815-3.63259c3.70914,0,6.4945,1.16862,7.29572,4.18642l6.92809.02346c-1.35734-6.65039-7.29572-9.79018-13.7902-9.79018-7.17789,0-13.54511,3.75461-13.54514,9.57428,0,6.09655,4.38779,8.4995,10.01981,9.66812l5.00991.9856c3.27553.68053,5.74984,1.85385,5.74984,4.56185s-2.78067,4.30841-6.67829,4.30841c-4.36894,0-6.80555-1.8773-7.47479-5.33154h-7.17786c.8059,6.20918,6.24939,10.90245,14.41229,10.90245,7.54549,0,14.106-3.8203,14.106-10.71941C196.53067,30.28943,191.3935,28.19625,184.65394,26.90091Z"/>
    <polygon points="8 2.574 1 2.574 1 46.574 41 46.574 41 39.574 8 39.574 8 2.574"/>
    <path d="M35.7928,1.57373h-.00922a5.76217,5.76217,0,1,0,.00922,0Z"/>
    <polygon points="22 3.574 14 3.574 14 28.301 14 34.453 14 34.574 41 34.574 41 28.574 22 28.574 22 3.574"/>
  </g>
</svg>
